<!DOCTYPE svg PUBLIC "-//W3C//DTD SVG 1.1//EN" "http://www.w3.org/Graphics/SVG/1.1/DTD/svg11.dtd">
<!-- Uploaded to: SVG Repo, www.svgrepo.com, Transformed by: SVG Repo Mixer Tools -->
<svg version="1.1" id="designs" xmlns="http://www.w3.org/2000/svg" xmlns:xlink="http://www.w3.org/1999/xlink" width="100px" height="100px" viewBox="-3.2 -3.2 38.40 38.40" xml:space="preserve" fill="#000000">
<g id="SVGRepo_bgCarrier" stroke-width="0" transform="translate(3.1999999999999993,3.1999999999999993), scale(0.8)">
<path transform="translate(-3.2, -3.2), scale(2.4)" fill="#FFCB12" d="M9.166.33a2.25 2.25 0 00-2.332 0l-5.25 3.182A2.25 2.25 0 00.5 5.436v5.128a2.25 2.25 0 001.084 1.924l5.25 3.182a2.25 2.25 0 002.332 0l5.25-3.182a2.25 2.25 0 001.084-1.924V5.436a2.25 2.25 0 00-1.084-1.924L9.166.33z" strokewidth="0"/>
</g>
<g id="SVGRepo_tracerCarrier" stroke-linecap="round" stroke-linejoin="round"/>
<g id="SVGRepo_iconCarrier"> <style type="text/css"> .sketchy_een{fill:#111918;} </style> <path class="sketchy_een" d="M26.824,18.765c0.234-0.022,0.432-0.077,0.602-0.249c0.001-0.001,0.002-0.003,0.003-0.004 c0.275-0.082,0.517-0.277,0.578-0.568c0.171-0.822,0.345-1.645,0.518-2.467c0.177-0.848,0.308-1.703,0.459-2.555 c0.312-1.762,0.618-3.526,0.869-5.3c0.055-0.386,0.1-0.777,0.143-1.166c0.026-0.224-0.11-0.483-0.263-0.634 c-0.154-0.155-0.362-0.238-0.579-0.252c-0.131-0.073-0.27-0.12-0.434-0.136c-0.186-0.018-0.379-0.012-0.567-0.008 c-0.202,0.004-0.402-0.004-0.604-0.01c-0.389-0.012-0.777-0.031-1.166-0.047c-0.781-0.035-1.564,0.008-2.345,0.008 c-1.733,0.002-3.464,0.022-5.194,0.014c-1.566-0.008-3.132-0.016-4.698-0.028c-0.332-0.002-0.663,0-0.995,0.002 c-0.422,0.002-0.842,0.004-1.264-0.004c-0.809-0.011-1.615-0.033-2.422-0.033c-0.001,0-0.002,0-0.003,0 c-0.1-0.547-0.202-1.094-0.295-1.642C9.122,3.417,9.071,3.148,9.02,2.879C8.977,2.65,8.818,2.479,8.62,2.367 C8.473,2.253,8.296,2.173,8.097,2.169C8.005,2.166,7.913,2.165,7.822,2.165c-0.727,0-1.455,0.062-2.183,0.078 c-0.92,0.022-1.841-0.002-2.761-0.006C2.398,2.235,2,2.638,2,3.114s0.398,0.879,0.877,0.877C3.79,3.99,4.704,3.984,5.617,3.944 c0.286-0.012,0.573-0.01,0.862-0.008c0.133,0,0.267,0.002,0.402,0C7.062,3.936,7.244,3.926,7.426,3.92 C7.741,5.489,8.05,7.058,8.298,8.641c0.137,0.874,0.318,1.731,0.532,2.59c0.222,0.895,0.391,1.802,0.581,2.702 c0.183,0.857,0.375,1.713,0.546,2.573c0.175,0.877,0.357,1.75,0.555,2.622c0.186,0.826,0.4,1.646,0.567,2.475 c0.171,0.844,0.373,1.68,0.561,2.52c0.049,0.226,0.1,0.451,0.137,0.679c0.022,0.125,0.1,0.239,0.193,0.34 c0.032,0.048,0.055,0.103,0.097,0.144c0.179,0.179,0.385,0.238,0.628,0.261c0.078,0.008,0.156,0.003,0.233,0.009 c-0.082,0.135-0.133,0.288-0.193,0.433c-0.029,0.071-0.055,0.145-0.075,0.218c-0.061,0.238-0.106,0.471-0.137,0.712 c-0.053,0.416,0.004,0.824,0.173,1.209c0.212,0.489,0.591,0.914,1.081,1.136c0.281,0.129,0.542,0.229,0.848,0.279 c0.393,0.061,0.75,0.033,1.136-0.035c0.697-0.122,1.303-0.585,1.66-1.183c0.249-0.418,0.318-0.973,0.347-1.448 c0.02-0.294-0.01-0.598-0.124-0.871c-0.043-0.124-0.098-0.241-0.169-0.351c-0.017-0.029-0.044-0.052-0.064-0.08 c0.269,0.002,0.537-0.001,0.806,0.001c0.704,0.006,1.411,0.004,2.117,0c0.791-0.003,1.584,0.004,2.376,0.013 c-0.079,0.123-0.149,0.253-0.212,0.381c-0.12,0.235-0.212,0.492-0.263,0.751s-0.092,0.522-0.118,0.785 c-0.043,0.469,0.094,0.948,0.339,1.344c0.283,0.453,0.791,0.74,1.289,0.899c0.19,0.061,0.408,0.075,0.608,0.081 c0.114,0.004,0.228,0.01,0.339,0.006c0.544-0.014,1.071-0.124,1.552-0.381c0.306-0.165,0.589-0.508,0.765-0.807 c0.137-0.234,0.245-0.487,0.326-0.744c0.153-0.487,0.157-1.019,0-1.503c-0.083-0.257-0.23-0.488-0.393-0.705 c0.091-0.004,0.182,0.002,0.272-0.004c0.186-0.014,0.373-0.035,0.559-0.045c0.147-0.008,0.294,0.006,0.44,0.01 c0.371,0.012,0.712-0.263,0.81-0.616c0.059-0.216,0.027-0.451-0.086-0.646c-0.12-0.206-0.288-0.3-0.5-0.386 c-0.194-0.077-0.379-0.128-0.591-0.139c-0.192-0.012-0.385,0.01-0.577,0.023c-0.418,0.03-0.836,0.028-1.254,0.01 c-0.42-0.016-0.838-0.059-1.258-0.082c-0.424-0.024-0.85-0.02-1.274-0.026c-1.803-0.023-3.605,0.037-5.408,0.055 c-0.869,0.008-1.741,0.022-2.612,0.02c-0.706-0.001-1.414-0.015-2.12-0.059c-0.152-0.662-0.304-1.324-0.442-1.991 c-0.06-0.288-0.133-0.573-0.197-0.86c0.218-0.012,0.437-0.02,0.655-0.035c0.434-0.031,0.859-0.137,1.285-0.218 c0.848-0.159,1.695-0.314,2.543-0.465c0.834-0.147,1.664-0.306,2.502-0.438c0.822-0.13,1.644-0.259,2.467-0.379 c0.017-0.003,0.036-0.005,0.054-0.008c0.36-0.046,0.721-0.09,1.081-0.141c0.355-0.049,0.706-0.112,1.062-0.161 c-0.018,0.002-0.036,0.005-0.054,0.008c0.585-0.082,1.165-0.185,1.75-0.271C26.31,18.817,26.567,18.79,26.824,18.765z M25.546,27.631c-0.049,0.098-0.102,0.191-0.162,0.282c-0.029,0.032-0.059,0.063-0.091,0.093c-0.005,0.003-0.01,0.006-0.015,0.009 c-0.115,0.039-0.232,0.067-0.352,0.091c-0.209,0.017-0.419,0.015-0.629-0.002c-0.049-0.011-0.095-0.023-0.143-0.037 c-0.069-0.037-0.136-0.076-0.203-0.117l-0.001-0.001c-0.018-0.029-0.036-0.058-0.052-0.089c-0.013-0.039-0.025-0.078-0.035-0.118 c-0.006-0.113-0.003-0.225,0.007-0.339c0.031-0.194,0.072-0.385,0.136-0.572c0.058-0.121,0.123-0.238,0.197-0.35 c0.031-0.032,0.062-0.062,0.095-0.091c0.109-0.075,0.219-0.148,0.331-0.219c0.11,0.132,0.259,0.233,0.434,0.283 c0.074,0.022,0.145,0.046,0.216,0.072c0.036,0.017,0.07,0.036,0.104,0.056c0.036,0.033,0.071,0.067,0.105,0.103 c0.047,0.072,0.09,0.146,0.131,0.222c0.013,0.043,0.025,0.087,0.035,0.132c0.004,0.072,0.004,0.144,0.001,0.216 C25.628,27.382,25.591,27.507,25.546,27.631z M15.961,27.089c-0.023,0.125-0.053,0.246-0.091,0.367 c-0.021,0.038-0.042,0.074-0.066,0.11c-0.031,0.032-0.062,0.063-0.094,0.092c-0.051,0.031-0.102,0.059-0.155,0.086 c-0.079,0.023-0.158,0.042-0.238,0.058c-0.117,0.007-0.23,0.008-0.346,0.003c-0.092-0.02-0.182-0.044-0.271-0.074 c-0.084-0.042-0.165-0.087-0.245-0.137c-0.009-0.009-0.018-0.019-0.028-0.029c-0.042-0.066-0.081-0.131-0.117-0.199 c-0.008-0.027-0.015-0.054-0.021-0.081c-0.003-0.085-0.002-0.167,0.003-0.251c0.03-0.154,0.067-0.305,0.115-0.454 c0.042-0.083,0.089-0.162,0.14-0.24c0.052-0.052,0.105-0.102,0.161-0.15c0.108-0.072,0.22-0.133,0.334-0.191 c0.075,0.049,0.157,0.087,0.246,0.113c0.026,0.008,0.051,0.016,0.077,0.025c0.08,0.043,0.156,0.09,0.231,0.14 c0.116,0.098,0.228,0.2,0.332,0.311c0.015,0.024,0.029,0.049,0.042,0.073C15.98,26.804,15.974,26.946,15.961,27.089z M24.422,17.475 c-0.761,0.139-1.523,0.279-2.288,0.394c-0.799,0.12-1.595,0.259-2.392,0.385c-0.828,0.129-1.654,0.255-2.478,0.406 c-1.256,0.229-2.517,0.44-3.778,0.624c-0.384,0.026-0.767,0.028-1.151,0.034c-0.205-0.841-0.397-1.686-0.57-2.534 c-0.177-0.875-0.367-1.747-0.551-2.62c-0.181-0.859-0.357-1.719-0.536-2.578c-0.094-0.449-0.218-0.891-0.318-1.336 c-0.104-0.453-0.196-0.909-0.283-1.366C9.964,8.289,9.87,7.691,9.772,7.094c0.772-0.017,1.545-0.046,2.317-0.047 c0.81-0.002,1.623-0.006,2.433-0.008c1.729-0.006,3.458-0.018,5.187-0.018c1.566,0,3.134-0.002,4.7,0.016 c0.708,0.008,1.419,0.002,2.127,0.039c0.359,0.02,0.72,0.043,1.081,0.059c0.168,0.007,0.337,0.016,0.506,0.021 c-0.058,0.526-0.115,1.052-0.183,1.577c-0.107,0.734-0.224,1.468-0.356,2.198c-0.133,0.73-0.239,1.466-0.347,2.202 c-0.195,1.339-0.447,2.67-0.778,3.984c-0.322,0.064-0.642,0.132-0.968,0.184C25.133,17.356,24.776,17.411,24.422,17.475z M26.265,12.393c-0.138,0.777-0.274,1.552-0.384,2.334c-0.04,0.318-0.074,0.637-0.122,0.953c-0.029,0.202-0.216,0.402-0.385,0.5 c-0.192,0.114-0.428,0.145-0.644,0.084c-0.21-0.057-0.392-0.196-0.5-0.385c-0.122-0.208-0.126-0.414-0.086-0.646 c0.106-0.583,0.177-1.172,0.265-1.758c0.086-0.582,0.191-1.159,0.277-1.739c0.094-0.805,0.169-1.613,0.235-2.421 c0.02-0.237,0.082-0.441,0.255-0.616c0.163-0.163,0.387-0.255,0.616-0.255c0.23,0,0.453,0.092,0.616,0.255 c0.151,0.151,0.275,0.396,0.255,0.616C26.57,10.344,26.446,11.376,26.265,12.393z"/> </g>
</svg>